<?xml version="1.0" encoding="UTF-8"?>
<svg id="Camada_2" data-name="Camada 2" xmlns="http://www.w3.org/2000/svg" viewBox="0 0 105.63 30.5">
  <defs>
    <style>
      .cls-1 {
        fill: #e30613;
      }

      .cls-1, .cls-2 {
        fill-rule: evenodd;
      }

      .cls-2 {
        fill: #70706f;
      }
    </style>
  </defs>
  <g id="Camada_1-2" data-name="Camada 1">
    <path class="cls-2" d="m55.98,23.68c-1.27.3-2.64.55-3.95.55-5.62,0-9.52-2.81-9.52-8.68s3.63-9.27,9.52-9.27c1.14,0,2.66.22,3.93.72l-.25,2.93c-1.32-.75-2.51-.92-3.75-.92-3.58,0-5.82,2.73-5.82,6.29s2.19,6.19,5.89,6.19c1.37,0,2.98-.3,3.8-.72l.15,2.91Z"/>
    <path class="cls-2" d="m58.24,6.57h4.4c3.78,0,7.23,1.09,7.23,5.25,0,4.05-2.96,5.52-6.69,5.52h-1.47v6.59h-3.48V6.57Zm3.48,8.03h1.22c1.74,0,3.31-.57,3.31-2.58s-1.52-2.71-3.31-2.71h-1.22v5.29Z"/>
    <polygon class="cls-2" points="75.52 9.31 70.55 9.31 70.55 6.57 83.97 6.57 83.97 9.31 79 9.31 79 23.93 75.52 23.93 75.52 9.31"/>
    <polygon class="cls-2" points="86.19 6.57 91.75 6.57 95.88 19.72 95.93 19.72 100.06 6.57 105.63 6.57 105.63 23.93 102.29 23.93 102.29 9.61 102.25 9.61 97.57 23.93 94.24 23.93 89.57 9.61 89.52 9.66 89.52 23.93 86.19 23.93 86.19 6.57"/>
    <polygon class="cls-1" points="15.27 30.5 23.98 30.5 8.73 15.26 17.44 6.53 8.73 6.53 0 15.25 15.27 30.5"/>
    <polygon class="cls-1" points="19.62 0 10.9 0 26.15 15.25 17.44 23.97 26.15 23.97 34.88 15.25 19.62 0"/>
  </g>
</svg>