<?xml version="1.0" encoding="UTF-8" standalone="no"?>
<svg xmlns="http://www.w3.org/2000/svg"
   xmlns:dc="http://purl.org/dc/elements/1.1/"
   xmlns:cc="http://creativecommons.org/ns#"
   xmlns:rdf="http://www.w3.org/1999/02/22-rdf-syntax-ns#"
   width="210" height="57.686893">
  <title>Empresa Metropolitana de Transportes Urbanos de São Paulo (EMTU/SP)</title>
  <metadata>
    <rdf:RDF>
      <cc:Work rdf:about="">
        <dc:format>image/svg+xml</dc:format>
        <dc:type rdf:resource="http://purl.org/dc/dcmitype/StillImage"/>
        <dc:title>Empresa Metropolitana de Transportes Urbanos de São Paulo (EMTU/SP)</dc:title>
        <cc:license rdf:resource="http://creativecommons.org/licenses/by-sa/3.0/"/>
      </cc:Work>
      <cc:License rdf:about="http://creativecommons.org/licenses/by-sa/3.0/">
        <cc:permits
           rdf:resource="http://creativecommons.org/ns#Reproduction" />
        <cc:permits
           rdf:resource="http://creativecommons.org/ns#Distribution" />
        <cc:requires
           rdf:resource="http://creativecommons.org/ns#Notice" />
        <cc:requires
           rdf:resource="http://creativecommons.org/ns#Attribution" />
        <cc:permits
           rdf:resource="http://creativecommons.org/ns#DerivativeWorks" />
        <cc:requires
           rdf:resource="http://creativecommons.org/ns#ShareAlike" />
      </cc:License>
    </rdf:RDF>
  </metadata>
  <g
     transform="translate(-523.47349,-554.99115)">
    <g
       transform="matrix(3.2454624,0,0,3.2454624,-1175.4401,-1375.7456)">
      <path
         style="fill:#295198;fill-opacity:1;fill-rule:evenodd;stroke:none"
         d="m 523.47351,603.79082 c 0,-4.90863 3.97888,-8.88738 8.887,-8.88738 4.90888,-3.7e-4 8.888,3.97875 8.888,8.88738 0,4.9085 -3.97912,8.88725 -8.888,8.88725 -4.90812,0 -8.887,-3.97875 -8.887,-8.88725 z m 0.0127,0 c 0,-3.14788 2.552,-5.69975 5.69988,-5.69975 3.14787,0 5.69975,2.55187 5.69975,5.69975 0,3.14787 -2.55188,5.69975 -5.69975,5.69975 -3.14788,0 -5.69988,-2.55188 -5.69988,-5.69975" />
      <path
         style="fill:#cf3134;fill-opacity:1;fill-rule:evenodd;stroke:none"
         d="m 523.47351,603.79082 3.8e-4,-0.12825 0.0135,0 c 0.0684,-3.08875 2.59375,-5.5715 5.69875,-5.5715 1.17275,0 2.263,0.33975 3.16975,0.94712 -1.52575,1.02288 -2.53025,2.77788 -2.53025,4.75263 0,3.14787 2.55187,5.69975 5.69975,5.69975 3.14787,0 5.69975,-2.55188 5.69975,-5.69975 0,-0.0429 -3.8e-4,-0.0854 -10e-4,-0.12825 l 0.0234,0 0.001,0.12825 c 0,4.9085 -3.97913,8.88725 -8.888,8.88725 -4.90813,0 -8.887,-3.97875 -8.887,-8.88725" />
      <path
         style="fill:#96989b;fill-opacity:1;fill-rule:evenodd;stroke:none"
         d="m 552.34476,600.55569 -5.6905,0 0,2.3425 5.6905,0 0,1.82313 -5.6905,0 0,2.39737 5.6905,0 0,1.81625 -7.6585,0 0,-10.19512 7.6585,0 0,1.81587 z" />
      <path
         style="fill:#96989b;fill-opacity:1;fill-rule:evenodd;stroke:none"
         d="m 564.21764,598.73982 0,10.209 -1.97463,0 0,-6.93425 -2.52287,3.168 -0.5385,0 -2.55163,-3.17438 0,6.94063 -1.96725,0 0,-10.209 1.73025,0 3.06075,3.7775 3.0465,-3.7775 1.71738,0 z" />
      <path
         style="fill:#96989b;fill-opacity:1;fill-rule:evenodd;stroke:none"
         d="m 574.53976,598.72594 0,1.816 -3.3535,0 0,8.40688 -1.97462,0 0,-8.40688 -3.29813,0 0,-1.816 8.62625,0 z" />
      <path
         style="fill:#96989b;fill-opacity:1;fill-rule:evenodd;stroke:none"
         d="m 585.09801,598.73982 0,5.755 c 0,0.747 -0.0545,1.33862 -0.17712,1.75612 -0.1105,0.395 -0.25375,0.73588 -0.43338,1.01825 -0.17187,0.27363 -0.38375,0.51775 -0.63462,0.7335 -0.827,0.71263 -1.89675,1.05588 -3.18075,1.05625 -1.30575,0 -2.3865,-0.34125 -3.2095,-1.05025 -0.24913,-0.21887 -0.46525,-0.46762 -0.641,-0.7395 -0.17363,-0.28062 -0.3165,-0.61787 -0.42738,-0.99987 -0.11237,-0.40325 -0.16262,-1.00775 -0.16262,-1.78825 l 0,-5.74125 1.97462,0 0,5.755 c 0,1.09562 0.0394,1.94 1.091,2.47675 0.37275,0.18675 0.82275,0.28487 1.36063,0.28487 0.76437,0 1.35675,-0.19762 1.80675,-0.57112 0.23525,-0.1995 0.39862,-0.42875 0.49925,-0.69163 0.0981,-0.25687 0.15987,-0.74312 0.15987,-1.49887 l 0,-5.755 1.97425,0 z" />
    </g>
  </g>
</svg>
