<?xml version="1.0" encoding="UTF-8"?>
<svg id="Camada_2" data-name="Camada 2" xmlns="http://www.w3.org/2000/svg" viewBox="0 0 259.73 35.51">
  <defs>
    <style>
      .cls-1, .cls-2 {
        fill: #444548;
      }

      .cls-3 {
        fill: #8d2319;
      }

      .cls-2 {
        fill-rule: evenodd;
      }
    </style>
  </defs>
  <g id="Camada_1-2" data-name="Camada 1">
    <g id="Group_8" data-name="Group 8">
      <path id="Path_22" data-name="Path 22" class="cls-3" d="m107.2,26.9c-.1.6-.4,1.1-.9,1.5s-1.1.6-1.7.6h-3.4l4-18h-.1l-8.6,18h-5.5l-.8-18h-.1l-3.3,15.8c-.1.6-.4,1.2-.9,1.6s-1.1.6-1.8.6h-2.9l4.3-19.9c.3-1.3,1.4-2.1,2.7-2.1h6.7l.3,14.5h0l6-12.9c.4-1,2.5-.6,2.5-.6h7.4l-3.9,18.9Z"/>
      <path id="Path_23" data-name="Path 23" class="cls-3" d="m129.7,19.4c0,3.2-1,5.6-2.9,7.3-1.8,1.5-4.2,2.3-7.4,2.3-2.8,0-4.9-.7-6.4-2.1-1.3-1.4-2-3.2-1.9-5.2-.1-2.7,1-5.3,3-7,2.1-1.7,4.6-2.5,7.3-2.4,2.2-.1,4.5.6,6.2,2.1,1.4,1.2,2.2,3.1,2.1,5m-5.7-.1c0-.9-.2-1.7-.7-2.4-.5-.6-1.3-.9-2.1-.9-1,0-1.9.4-2.6,1.1s-1.2,1.5-1.5,2.4c-.2.6-.3,1.3-.3,2,0,.9.2,1.8.7,2.5s1.4,1.1,2.3,1c1.4,0,2.6-.7,3.3-1.9.7-1.1,1-2.4.9-3.8"/>
      <path id="Path_24" data-name="Path 24" class="cls-3" d="m144.2,12.6c1.7-.1,3.4.6,4.5,1.9,1,1.3,1.6,3,1.5,4.7,0,1.8-.3,3.7-1.1,5.4-.7,1.7-2,3.1-3.6,3.9-1.2.6-2.5.9-3.8.9-2.7,0-4.6-1.1-5.6-3.4h-.1l-.2.8c-.2,1.3-1.4,2.3-2.7,2.2h-3c.4-1.3.8-2.6,1.1-4l3.8-16.8c.2-1.3,1.4-2.3,2.8-2.2h3.2l-2,9h.1c1.3-1.5,3.2-2.3,5.2-2.3m-6.7,8.8c0,.8.2,1.6.6,2.3.5.6,1.2,1,2,1,1.2,0,2.4-.6,3.1-1.6s1.1-2.2,1.1-3.4c0-2.2-.9-3.3-2.6-3.3-1.2,0-2.3.6-3,1.7-.8.9-1.2,2.1-1.2,3.3"/>
      <path id="Path_25" data-name="Path 25" class="cls-3" d="m154.9,14c.1-.7,2.1-2,2.1-2h3.9l-3,14.3c-.1.5-.4.9-.7,1.2-.4.3-.8.5-1.3.5h-3.9l2.9-14h0Zm7.3-8l-.5,2.4c-.1.5-.4.9-.7,1.2-.4.3-.8.5-1.3.5h-3.8l.5-2.3c.2-1,1.1-1.7,2.1-1.7l3.7-.1Z"/>
      <path id="Path_26" data-name="Path 26" class="cls-3" d="m168.3,26.5c0,.7-.4,1.3-.9,1.8s-1.2.7-1.9.7h-3.3l4.3-20.8c.1-.6.5-1.2,1-1.6s1.1-.6,1.8-.6h3.3l-4.3,20.5Z"/>
      <path id="Path_27" data-name="Path 27" class="cls-3" d="m175.3,14.7c.1-1,1-1.8,2.1-1.7h3.9l-3,14.3c-.1.5-.4.9-.7,1.2-.4.3-.8.5-1.3.5h-3.9l2.9-14.3h0Zm7.3-8.7l-.5,2.4c-.1.5-.4.9-.7,1.2-.4.3-.8.5-1.3.5h-3.8l.5-2.3c.2-1,1.1-1.7,2.1-1.7l3.7-.1Z"/>
      <path id="Path_28" data-name="Path 28" class="cls-3" d="m199.5,26.7c-.1.7-.5,1.2-1,1.7-.5.4-1.2.7-1.8.7h-2.5l.5-3h0c-.7,1-1.6,1.7-2.6,2.3-1,.5-2.2.7-3.3.6-1.7,0-3.3-.7-4.4-2s-1.7-2.9-1.6-4.6c-.1-2.5.6-5,2-7.1,1.4-2,3.7-3.2,6.2-3.1,2.8,0,4.7,1,5.6,3h0l1.5-7.6c.2-1.4,1.5-2.4,2.8-2.4h3.2l-4.6,21.5Zm-8.4-2c1.2,0,2.3-.6,3-1.7.8-1,1.2-2.1,1.2-3.4,0-.8-.2-1.6-.6-2.2-.5-.6-1.2-1-2-1-1.2,0-2.4.6-3.1,1.6s-1.1,2.2-1.1,3.4c0,2.2.9,3.3,2.6,3.3"/>
      <path id="Path_29" data-name="Path 29" class="cls-3" d="m212.8,12.6c3.2,0,5.4,1,6.4,3,.4.8.6,1.6.5,2.5-.1,1.6-.4,3.1-.8,4.6-.5,2.1-1,4.2-1.3,6.3h-2s-1.2-.6-1.6-1.1c-.4-.4-.7-1-.7-1.6l.2-.1v.1c-1.5,1.8-3.5,2.8-5.7,2.6-3.5,0-5.3-1.5-5.3-4.6,0-1.4.6-2.8,1.6-3.7,1.1-.9,2.4-1.5,3.8-1.8,1.1-.2,2.3-.4,3.4-.4,1,0,2,.1,3,.2,0-.1.2-.3.2-.3v-.3c0-.7-.4-1.4-1.1-1.7-.6-.3-1.3-.5-2-.5-.8,0-1.5.1-2.2.2h-.5c-.6,0-1.2-.2-1.6-.6-.4-.4-.7-1-.6-1.5v-.3l.1-.6c1.9-.6,3.9-1,5.9-1m-2.7,12.9c2.3,0,3.7-1.3,4.2-3.8-.2,0-.5-.1-.8-.1h-.7c-1,0-1.9.1-2.8.4-1.2.4-1.7,1-1.7,1.9,0,.5.2.9.6,1.2.3.2.7.4,1.2.4"/>
      <path id="Path_30" data-name="Path 30" class="cls-3" d="m238.7,26.7c-.1.7-.5,1.2-1,1.7-.5.4-1.2.7-1.8.7h-2.5l.5-3h0c-.7,1-1.6,1.7-2.6,2.3-1,.5-2.2.7-3.3.6-1.7,0-3.3-.7-4.4-2-1.1-1.3-1.7-2.9-1.6-4.6-.1-2.5.6-5,2-7.1,1.4-2,3.7-3.2,6.2-3.1,2.8,0,4.7,1,5.6,3h0l1.5-7.6c.1-.7.5-1.3,1-1.7.5-.4,1.2-.7,1.8-.7h3.2l-4.6,21.5Zm-8.3-2c1.2,0,2.3-.6,3-1.7.8-1,1.2-2.1,1.2-3.4,0-.8-.2-1.6-.6-2.2s-1.2-1-2-1c-1.2,0-2.4.6-3.1,1.6-.7,1-1.1,2.2-1.1,3.4-.1,2.2.8,3.3,2.6,3.3"/>
      <path id="Path_31" data-name="Path 31" class="cls-3" d="m259.7,18.9c0,.5,0,1-.1,1.4l-.1.9c0,.3-.1.6-.2.8h-11.8c-.1,1.4.9,2.7,2.3,2.9.7.2,1.4.3,2.1.2.7,0,1.3,0,2-.2h.4c.6,0,1.1.2,1.5.6s.6,1,.6,1.6c0,.2,0,.4-.1.6l-.1.4c-1.9.6-3.8.9-5.8.9-2.3.1-4.6-.7-6.3-2.2-1.5-1.4-2.3-3.4-2.2-5.4,0-2.3.8-4.5,2.2-6.4,1.9-2.3,4.8-3.6,7.7-3.5,2-.1,3.9.5,5.5,1.8,1.8,1.5,2.6,3.5,2.4,5.6m-4.9.1c0-2.1-.9-3.2-2.7-3.2-1.5-.1-2.9.7-3.6,2-.2.4-.4.8-.5,1.2h6.8Z"/>
      <path id="Path_32" data-name="Path 32" class="cls-3" d="m60.1,0c-10.5,0-18.8,9.1-17.6,19.8.9,8.1,7.5,14.7,15.6,15.6,10.7,1.2,19.8-7.2,19.8-17.6,0-9.8-7.9-17.8-17.8-17.8h.5m9.2,22.3l-4.2,3c-.1.1-.4.3-.5.3-4.1,2.6-9.7,1.4-12.3-2.8-2.6-4.1-1.4-9.7,2.8-12.3,2.9-1.8,6.6-1.9,9.5,0,0,0,.4.2.4.3l4.3,3,4.6,3.2c.5.3.8,1,.5,1.5-.1.2-.3.4-.5.5l-4.6,3.3Z"/>
      <g id="Component_4_50" data-name="Component 4 50">
        <path id="Path_33" data-name="Path 33" class="cls-2" d="m64.61,23.16c-.5.4-1,.1-1-.7v-8.9c0-.8.4-1.1,1-.7l3.1,2.2,3.1,2.2c.4.2.5.7.3,1.1l-.3.3-3.1,2.2-3.1,2.3Z"/>
      </g>
      <path id="Path_34" data-name="Path 34" class="cls-1" d="m5.6,29h-2.2L0,8h1.3c1,0,1.8.7,2,1.6l2.4,16.4h-.2L15.5,9c.4-.6,1-1,1.7-1h2L7.4,27.7c-.3.6-1,.9-1.6.9"/>
      <path id="Path_35" data-name="Path 35" class="cls-1" d="m19.6,28h-2l2.9-13.9c.1-.6.7-1.1,1.4-1.1h1.6l-2.9,13.9c-.1.6-.7,1.1-1.3,1.1m4.3-18h-2.1l.4-2c.1-.6.6-1,1.2-1h1.9l-.4,2c-.1.6-.7,1-1.3,1"/>
      <path id="Path_36" data-name="Path 36" class="cls-1" d="m39.1,17.4c0,.8-.1,1.6-.3,2.4-.5,2.8-1.2,5.6-1.5,8.2h-1.3c-.7,0-1.3-.6-1.4-1.3v.4-.2l.2-.9h-.1c-1,1.7-2.8,2.8-4.8,2.8-2.5,0-4.7-1.3-4.7-4,0-4.1,3.8-5.3,8.8-5.3.6,0,1.3,0,2,.1.1-.3.1-.6.1-.9,0-2.1-1.4-2.9-3.4-2.9-.8,0-1.6.1-2.4.3h-.4c-.7,0-1.3-.5-1.3-1.2h0v-.7l.1-.3c1.4-.4,2.8-.7,4.2-.8,3,0,5.9,1.2,5.9,4.8m-3.2,3.1h-2c-2.1,0-5.4.6-5.2,3.5,0,.9.7,1.6,1.5,1.7,3.4.7,5.5-2.4,5.9-5.2"/>
    </g>
  </g>
</svg>