<?xml version="1.0" encoding="UTF-8"?>
<svg id="Camada_2" data-name="Camada 2" xmlns="http://www.w3.org/2000/svg" viewBox="0 0 162.2 30.8">
  <defs>
    <style>
      .cls-1 {
        fill: #717175;
      }

      .cls-2 {
        fill: #fdc32a;
      }
    </style>
  </defs>
  <g id="Camada_1-2" data-name="Camada 1">
    <path class="cls-2" d="m60.6,19.1l-3.7,2.6-.4.3c-1.2.8-2.6,1.2-4.1,1.2-4.3,0-7.7-3.5-7.7-7.7s3.5-7.7,7.7-7.7c1.5,0,2.9.4,4.1,1.2l.4.3,3.7,2.6,4,2.8c.3.2.5.6.5.9s-.2.6-.5.9l-4,2.6ZM52.2,0c-8.5,0-15.4,6.9-15.4,15.4s6.9,15.4,15.4,15.4,15.4-6.9,15.4-15.4S60.7,0,52.2,0"/>
    <path class="cls-1" d="m56.3,19.8c-.5.3-.9.1-.9-.6v-7.7c0-.7.4-.9.9-.6l2.7,1.9,2.7,1.9c.5.3.5.9,0,1.2l-2.7,1.9-2.7,2Z"/>
    <path class="cls-1" d="m5,24.4h-2.1L0,6.5h1.1c.8,0,1.5.6,1.7,1.4l2,13.9h0L13.3,7.3c.3-.5.8-.8,1.5-.8h1.8L6.3,23.6c-.2.5-.7.8-1.3.8"/>
    <path class="cls-1" d="m20.3,8.4h-1.7l.4-1.8c.1-.5.6-.9,1.1-.9h1.8l-.4,1.8c-.1.5-.6.9-1.2.9m-3.5,16h-1.5l2.6-12.2c.1-.5.6-.9,1.2-.9h1.4l-2.6,12.1c-.1.6-.6,1-1.1,1"/>
    <path class="cls-1" d="m31,18.1h-1.8c-1.8,0-4.6.5-4.6,2.9,0,1.1,1,1.7,2.1,1.7,2.5,0,4-2.4,4.3-4.6m2.9-2.9c0,.6-.1,1.5-.2,2.1-.5,2.4-1,4.9-1.3,7.1h-.8c-.7,0-1.2-.5-1.2-1.2v-.2l.1-.8h0c-.8,1.5-2.5,2.5-4.2,2.5-2.2,0-4.2-1.2-4.2-3.6,0-3.7,3.4-4.8,7.7-4.8.5,0,1.1.1,1.8.1,0-.3.1-.5.1-.9,0-1.9-1.2-2.6-3-2.6-.7,0-1.5.1-2.1.3h-.3c-.6,0-1.1-.5-1.1-1.1v-.4c1.1-.4,2.7-.7,3.7-.7,2.5,0,5,1.1,5,4.2"/>
    <path class="cls-2" d="m81.9,9.5c-3.7,0-5.2,4.3-5.2,7.3,0,2.3.9,4.1,3.3,4.1,3.7,0,5.2-4.3,5.2-7.3,0-2.2-.8-4.1-3.3-4.1m2.6,14.2l3.4,4h-4.4c-.8,0-1.5-.4-1.9-1l-1.3-2h-.5c-4.4,0-8-2.3-8-7.3,0-6.8,3.6-11.2,10.5-11.2,5.8,0,8,3.6,8,7.3-.1,4.8-2,8.6-5.8,10.2"/>
    <path class="cls-2" d="m107.2,10.8l-2.1,9.9c-.2,1.2-.4,2.3-.6,3.5h-4.3l.3-2.2h0c-1.4,1.5-2.7,2.5-5.2,2.5-2.7,0-4.2-2-4.2-4.6,0-.9.1-1.4.3-2.8l.9-4.4c.2-1.1,1.1-1.9,2.3-1.9h2.9l-1.3,6.3c-.1.7-.3,1.3-.3,2,0,.8.5,1.6,1.8,1.5,2,0,3.1-1.7,3.5-3.7l.9-4.3c.2-1.1,1.1-1.9,2.3-1.9l2.8.1h0Z"/>
    <path class="cls-2" d="m117.1,18.2c-.4-.1-1-.1-1.2-.1-2.2-.1-3.8.7-3.8,1.9,0,.6.6,1.3,1.6,1.3,1.9.1,3.1-1.2,3.4-3.1m4.9-3.1c0,2.1-1.2,5.1-1.7,9.1h-1.6c-1,0-1.9-.9-1.9-1.9v-.1.1c-1,1.5-2.7,2.2-4.5,2.2-2.9,0-4.4-1.3-4.4-3.9,0-3.3,3.3-4.9,7.4-4.9.9,0,1.9.1,2.5.1v-.6c0-.9-1-1.7-2.5-1.7-.6,0-1.2.1-1.8.2h-.4c-1,0-1.8-.8-1.8-1.7v-.8c1.4-.5,2.9-.8,4.9-.8,3.1.1,5.8,1.4,5.8,4.7"/>
    <path class="cls-2" d="m130.6,17.8c-.2,1-.4,1.6-.4,2.3,0,.9.5,1.4,1.4,1.5.7.1,1.3.7,1.3,1.4v.2l-.1,1c-1,.1-2,.3-2.9.3-2.3,0-4.2-1.1-4.2-3.9,0-.7.1-1.3.4-2.8l.8-3.7h-2.5l.6-3.2h2.6l.3-1.6c.2-.8.8-1.4,1.6-1.6l3.6-.9-.9,4.1h3.2l-.6,3.2h-3.3l-.9,3.7Z"/>
    <path class="cls-2" d="m147.2,10.9l-1.1,4.1c-.6-.5-1.2-.6-2.1-.6-1.9,0-3.1,1.7-3.4,3.6l-.9,4.3c-.3,1.1-1.2,1.9-2.3,1.9h-2.7l2.1-9.9c.1-.6.2-1,.3-1.6.2-1.1,1.1-1.9,2.3-1.9h2.3l-.5,2.7h0c.7-1.5,2.2-3,4.1-3,.5.1,1.3.2,1.9.4"/>
    <path class="cls-2" d="m155,13.8c-2.2,0-3.6,2.4-3.6,4.5,0,1.8,1,3,2.5,3,2.2,0,3.5-1.8,3.5-4.8,0-1.4-.6-2.7-2.4-2.7m-1.4,10.7c-5,0-7-2.7-7-6.1,0-4.7,3.4-7.9,8.6-7.9,4.5,0,7,2.6,7,6,0,5.6-3.6,8-8.6,8"/>
  </g>
</svg>